<svg width="16" height="16" viewBox="0 0 16 16" fill="none" xmlns="http://www.w3.org/2000/svg">
<g clip-path="url(#clip0_3002_11147)">
<path d="M11 7.33333H12.9333C13.3067 7.33333 13.4933 7.33333 13.636 7.406C13.7614 7.46993 13.8634 7.57187 13.9273 7.69733C14 7.83993 14 8.0266 14 8.4V14M4.99996 7.33333H3.06663C2.69323 7.33333 2.50656 7.33333 2.36396 7.406C2.23849 7.46993 2.13656 7.57187 2.07263 7.69733C1.99996 7.83993 1.99996 8.0266 1.99996 8.4V14M4.99996 14V4.13333C4.99996 3.3866 4.99996 3.01323 5.14529 2.72801C5.27309 2.47713 5.47709 2.27315 5.72796 2.14533C6.01316 2 6.38656 2 7.13329 2H8.86663C9.61337 2 9.98673 2 10.2719 2.14533C10.5228 2.27315 10.7268 2.47713 10.8546 2.72801C11 3.01323 11 3.3866 11 4.13333V14M1.33329 14H14.6666M8.66663 4.66667H7.33329M8.66663 7.33333H7.33329M8.66663 10H7.33329" stroke="black" stroke-opacity="0.8" stroke-width="1.3" stroke-linecap="round" stroke-linejoin="round"/>
</g>
<defs>
<clipPath id="clip0_3002_11147">
<rect width="16" height="16" fill="white" transform="matrix(-1 0 0 1 16 0)"/>
</clipPath>
</defs>
</svg>
