<svg width="16" height="16" viewBox="0 0 16 16" fill="none" xmlns="http://www.w3.org/2000/svg">
<g clip-path="url(#clip0_3173_36)">
<path d="M3.00004 14.6668V11.3335M3.00004 4.66683V1.3335M1.33337 3.00016H4.66671M1.33337 13.0002H4.66671M8.66671 2.00016L7.51057 5.00607C7.32257 5.49489 7.22857 5.7393 7.08237 5.94489C6.95284 6.1271 6.79364 6.28629 6.61143 6.41585C6.40585 6.56204 6.16143 6.65604 5.67261 6.84403L2.66671 8.00016L5.67261 9.1563C6.16143 9.3443 6.40585 9.4383 6.61143 9.5845C6.79364 9.71403 6.95284 9.87323 7.08237 10.0554C7.22857 10.261 7.32257 10.5054 7.51057 10.9942L8.66671 14.0002L9.82284 10.9942C10.0108 10.5054 10.1048 10.261 10.251 10.0554C10.3806 9.87323 10.5398 9.71403 10.722 9.5845C10.9276 9.4383 11.172 9.3443 11.6608 9.1563L14.6667 8.00016L11.6608 6.84403C11.172 6.65604 10.9276 6.56203 10.722 6.41585C10.5398 6.28629 10.3806 6.1271 10.251 5.94489C10.1048 5.7393 10.0108 5.49489 9.82284 5.00607L8.66671 2.00016Z" stroke="#DD228F" stroke-width="1.3" stroke-linecap="round" stroke-linejoin="round"/>
</g>
<defs>
<clipPath id="clip0_3173_36">
<rect width="16" height="16" fill="white"/>
</clipPath>
</defs>
</svg>
