<svg width="14" height="14" viewBox="0 0 14 14" fill="none" xmlns="http://www.w3.org/2000/svg">
<path d="M4.9 1.75H2.68333C2.35664 1.75 2.19329 1.75 2.06851 1.81358C1.95875 1.86951 1.86951 1.95875 1.81358 2.06851C1.75 2.19329 1.75 2.35664 1.75 2.68333V4.9C1.75 5.2267 1.75 5.39005 1.81358 5.51483C1.86951 5.62459 1.95875 5.71383 2.06851 5.76976C2.19329 5.83333 2.35664 5.83333 2.68333 5.83333H4.9C5.2267 5.83333 5.39005 5.83333 5.51483 5.76976C5.62459 5.71383 5.71383 5.62459 5.76976 5.51483C5.83333 5.39005 5.83333 5.2267 5.83333 4.9V2.68333C5.83333 2.35664 5.83333 2.19329 5.76976 2.06851C5.71383 1.95875 5.62459 1.86951 5.51483 1.81358C5.39005 1.75 5.2267 1.75 4.9 1.75Z" stroke="#475569" stroke-width="1.3" stroke-linecap="round" stroke-linejoin="round"/>
<path d="M11.3166 1.75H9.09996C8.77323 1.75 8.6099 1.75 8.48513 1.81358C8.37534 1.86951 8.28615 1.95875 8.23021 2.06851C8.16663 2.19329 8.16663 2.35664 8.16663 2.68333V4.9C8.16663 5.2267 8.16663 5.39005 8.23021 5.51483C8.28615 5.62459 8.37534 5.71383 8.48513 5.76976C8.6099 5.83333 8.77323 5.83333 9.09996 5.83333H11.3166C11.6434 5.83333 11.8067 5.83333 11.9315 5.76976C12.0412 5.71383 12.1304 5.62459 12.1864 5.51483C12.25 5.39005 12.25 5.2267 12.25 4.9V2.68333C12.25 2.35664 12.25 2.19329 12.1864 2.06851C12.1304 1.95875 12.0412 1.86951 11.9315 1.81358C11.8067 1.75 11.6434 1.75 11.3166 1.75Z" stroke="#475569" stroke-width="1.1" stroke-linecap="round" stroke-linejoin="round"/>
<path d="M11.3166 8.16666H9.09996C8.77323 8.16666 8.6099 8.16666 8.48513 8.23024C8.37534 8.28618 8.28615 8.37537 8.23021 8.48516C8.16663 8.60993 8.16663 8.77327 8.16663 9.09999V11.3167C8.16663 11.6434 8.16663 11.8067 8.23021 11.9315C8.28615 12.0413 8.37534 12.1305 8.48513 12.1864C8.6099 12.25 8.77323 12.25 9.09996 12.25H11.3166C11.6434 12.25 11.8067 12.25 11.9315 12.1864C12.0412 12.1305 12.1304 12.0413 12.1864 11.9315C12.25 11.8067 12.25 11.6434 12.25 11.3167V9.09999C12.25 8.77327 12.25 8.60993 12.1864 8.48516C12.1304 8.37537 12.0412 8.28618 11.9315 8.23024C11.8067 8.16666 11.6434 8.16666 11.3166 8.16666Z" stroke="#475569" stroke-width="1.1" stroke-linecap="round" stroke-linejoin="round"/>
<path d="M4.9 8.16666H2.68333C2.35664 8.16666 2.19329 8.16666 2.06851 8.23024C1.95875 8.28618 1.86951 8.37537 1.81358 8.48516C1.75 8.60993 1.75 8.77327 1.75 9.09999V11.3167C1.75 11.6434 1.75 11.8067 1.81358 11.9315C1.86951 12.0413 1.95875 12.1305 2.06851 12.1864C2.19329 12.25 2.35664 12.25 2.68333 12.25H4.9C5.2267 12.25 5.39005 12.25 5.51483 12.1864C5.62459 12.1305 5.71383 12.0413 5.76976 11.9315C5.83333 11.8067 5.83333 11.6434 5.83333 11.3167V9.09999C5.83333 8.77327 5.83333 8.60993 5.76976 8.48516C5.71383 8.37537 5.62459 8.28618 5.51483 8.23024C5.39005 8.16666 5.2267 8.16666 4.9 8.16666Z" stroke="#475569" stroke-width="1.1" stroke-linecap="round" stroke-linejoin="round"/>
</svg>
