<svg width="14" height="14" viewBox="0 0 14 14" fill="none" xmlns="http://www.w3.org/2000/svg">
<path d="M4.375 7H4.38083M7 7H7.00583M9.625 7H9.63083M7 12.25C9.89952 12.25 12.25 9.89952 12.25 7C12.25 4.10051 9.89952 1.75 7 1.75C4.10051 1.75 1.75 4.10051 1.75 7C1.75 7.69831 1.88635 8.36482 2.13387 8.97429C2.18124 9.09096 2.20493 9.14929 2.2155 9.19642C2.22584 9.24251 2.22962 9.27663 2.22962 9.32394C2.22963 9.37224 2.22086 9.42486 2.20331 9.53015L1.85741 11.6055C1.82118 11.8229 1.80307 11.9316 1.83678 12.0101C1.86628 12.0789 1.92108 12.1337 1.98986 12.1632C2.06844 12.1969 2.17711 12.1788 2.39444 12.1426L4.46988 11.7967C4.57514 11.7791 4.62776 11.7704 4.67608 11.7704C4.72334 11.7704 4.75747 11.7742 4.80359 11.7845C4.85073 11.7951 4.90905 11.8187 5.0257 11.8661C5.63517 12.1137 6.30169 12.25 7 12.25ZM4.66667 7C4.66667 7.16106 4.53608 7.29167 4.375 7.29167C4.21392 7.29167 4.08333 7.16106 4.08333 7C4.08333 6.83894 4.21392 6.70833 4.375 6.70833C4.53608 6.70833 4.66667 6.83894 4.66667 7ZM7.29167 7C7.29167 7.16106 7.16106 7.29167 7 7.29167C6.83894 7.29167 6.70833 7.16106 6.70833 7C6.70833 6.83894 6.83894 6.70833 7 6.70833C7.16106 6.70833 7.29167 6.83894 7.29167 7ZM9.91667 7C9.91667 7.16106 9.78606 7.29167 9.625 7.29167C9.46394 7.29167 9.33333 7.16106 9.33333 7C9.33333 6.83894 9.46394 6.70833 9.625 6.70833C9.78606 6.70833 9.91667 6.83894 9.91667 7Z" stroke="#0F172A" stroke-width="1.2" stroke-linecap="round" stroke-linejoin="round"/>
</svg>
