<svg width="24" height="24" viewBox="0 0 24 24" fill="none" xmlns="http://www.w3.org/2000/svg">
<rect width="24" height="24" rx="12" fill="#FFEEC2"/>
<path d="M9.375 12H9.38083M12 12H12.0058M14.625 12H14.6308M12 17.25C14.8995 17.25 17.25 14.8995 17.25 12C17.25 9.10051 14.8995 6.75 12 6.75C9.10051 6.75 6.75 9.10051 6.75 12C6.75 12.6983 6.88635 13.3648 7.13387 13.9743C7.18124 14.091 7.20493 14.1493 7.2155 14.1964C7.22584 14.2425 7.22962 14.2766 7.22962 14.3239C7.22963 14.3722 7.22086 14.4249 7.20331 14.5301L6.85741 16.6055C6.82118 16.8229 6.80307 16.9316 6.83678 17.0101C6.86628 17.0789 6.92108 17.1337 6.98986 17.1632C7.06844 17.1969 7.17711 17.1788 7.39444 17.1426L9.46988 16.7967C9.57514 16.7791 9.62776 16.7704 9.67608 16.7704C9.72334 16.7704 9.75747 16.7742 9.80359 16.7845C9.85073 16.7951 9.90905 16.8187 10.0257 16.8661C10.6352 17.1137 11.3017 17.25 12 17.25ZM9.66667 12C9.66667 12.1611 9.53608 12.2917 9.375 12.2917C9.21392 12.2917 9.08333 12.1611 9.08333 12C9.08333 11.8389 9.21392 11.7083 9.375 11.7083C9.53608 11.7083 9.66667 11.8389 9.66667 12ZM12.2917 12C12.2917 12.1611 12.1611 12.2917 12 12.2917C11.8389 12.2917 11.7083 12.1611 11.7083 12C11.7083 11.8389 11.8389 11.7083 12 11.7083C12.1611 11.7083 12.2917 11.8389 12.2917 12ZM14.9167 12C14.9167 12.1611 14.7861 12.2917 14.625 12.2917C14.4639 12.2917 14.3333 12.1611 14.3333 12C14.3333 11.8389 14.4639 11.7083 14.625 11.7083C14.7861 11.7083 14.9167 11.8389 14.9167 12Z" stroke="#0F172A" stroke-width="1.2" stroke-linecap="round" stroke-linejoin="round"/>
</svg>
