<svg width="16" height="16" viewBox="0 0 16 16" fill="none" xmlns="http://www.w3.org/2000/svg">
<g clip-path="url(#clip0_3002_11113)">
<g clip-path="url(#clip1_3002_11113)">
<path d="M13.3333 14.5449C12.9316 14.6667 12.389 14.6667 11.4666 14.6667H4.53329C3.61096 14.6667 3.06836 14.6667 2.66663 14.5449M13.3333 14.5449C13.4194 14.5189 13.4991 14.4872 13.5746 14.4487C13.9509 14.2569 14.2569 13.951 14.4486 13.5747C14.6666 13.1468 14.6666 12.5868 14.6666 11.4667V4.53334C14.6666 3.41324 14.6666 2.85318 14.4486 2.42536C14.2569 2.04904 13.9509 1.74308 13.5746 1.55133C13.1468 1.33334 12.5867 1.33334 11.4666 1.33334H4.53329C3.41316 1.33334 2.85316 1.33334 2.42529 1.55133C2.04896 1.74308 1.74303 2.04904 1.55129 2.42536C1.33329 2.85318 1.33329 3.41324 1.33329 4.53334V11.4667C1.33329 12.5868 1.33329 13.1468 1.55129 13.5747C1.74303 13.951 2.04896 14.2569 2.42529 14.4487C2.50083 14.4872 2.58049 14.5189 2.66663 14.5449M13.3333 14.5449C13.3331 14.0054 13.3298 13.7199 13.2821 13.4797C13.0716 12.4219 12.2447 11.595 11.1869 11.3846C10.9293 11.3333 10.6195 11.3333 9.99996 11.3333H5.99996C5.38043 11.3333 5.07063 11.3333 4.81303 11.3846C3.75523 11.595 2.92829 12.4219 2.71789 13.4797C2.67009 13.7199 2.66689 14.0054 2.66663 14.5449M5.33329 6.33334C5.33329 7.80608 6.52723 9.00001 7.99996 9.00001C9.47272 9.00001 10.6666 7.80608 10.6666 6.33334C10.6666 4.86058 9.47272 3.66668 7.99996 3.66668C6.52723 3.66668 5.33329 4.86058 5.33329 6.33334Z" stroke="black" stroke-opacity="0.8" stroke-width="1.3" stroke-linecap="round" stroke-linejoin="round"/>
</g>
</g>
<defs>
<clipPath id="clip0_3002_11113">
<rect width="16" height="16" fill="white" transform="matrix(-1 0 0 1 16 0)"/>
</clipPath>
<clipPath id="clip1_3002_11113">
<rect width="16" height="16" fill="white" transform="matrix(-1 0 0 1 16 0)"/>
</clipPath>
</defs>
</svg>
