<svg width="16" height="16" viewBox="0 0 16 16" fill="none" xmlns="http://www.w3.org/2000/svg">
<g clip-path="url(#clip0_3002_11078)">
<path d="M4.33333 7.33333H7.66667M4.33333 10H7.66667M4.33333 4.66667H7.66667M10 2V14M10.8 2H5.2C4.07987 2 3.51987 2 3.092 2.21799C2.71567 2.40973 2.40973 2.71569 2.218 3.09202C2 3.51984 2 4.07989 2 5.2V10.8C2 11.9201 2 12.4801 2.218 12.908C2.40973 13.2843 2.71567 13.5903 3.092 13.782C3.51987 14 4.07987 14 5.2 14H10.8C11.9201 14 12.4802 14 12.908 13.782C13.2843 13.5903 13.5903 13.2843 13.782 12.908C14 12.4801 14 11.9201 14 10.8V5.2C14 4.07989 14 3.51984 13.782 3.09202C13.5903 2.71569 13.2843 2.40973 12.908 2.21799C12.4802 2 11.9201 2 10.8 2Z" stroke="#0F172A" stroke-width="1.3" stroke-linecap="round" stroke-linejoin="round"/>
</g>
<defs>
<clipPath id="clip0_3002_11078">
<rect width="16" height="16" fill="white" transform="matrix(-1 0 0 1 16 0)"/>
</clipPath>
</defs>
</svg>
