<svg width="16" height="16" viewBox="0 0 16 16" fill="none" xmlns="http://www.w3.org/2000/svg">
<path d="M5.37496 7.41667H3.68329C3.3566 7.41667 3.19325 7.41667 3.06847 7.48025C2.95871 7.53619 2.86947 7.62538 2.81354 7.73517C2.74996 7.85994 2.74996 8.02328 2.74996 8.35V13.25M10.625 7.41667H12.3166C12.6434 7.41667 12.8067 7.41667 12.9315 7.48025C13.0412 7.53619 13.1304 7.62538 13.1864 7.73517C13.25 7.85994 13.25 8.02328 13.25 8.35V13.25M10.625 13.25V4.61667C10.625 3.96327 10.625 3.63657 10.4978 3.38701C10.386 3.16749 10.2075 2.98901 9.98796 2.87716C9.73841 2.75 9.41168 2.75 8.75829 2.75H7.24163C6.58823 2.75 6.26153 2.75 6.01197 2.87716C5.79245 2.98901 5.61397 3.16749 5.50212 3.38701C5.37496 3.63657 5.37496 3.96327 5.37496 4.61667V13.25M13.8333 13.25H2.16663M7.41663 5.08333H8.58329M7.41663 7.41667H8.58329M7.41663 9.75H8.58329" stroke="#0F172A" stroke-width="1.3" stroke-linecap="round" stroke-linejoin="round"/>
</svg>
