<svg width="16" height="16" viewBox="0 0 16 16" fill="none" xmlns="http://www.w3.org/2000/svg">
<g clip-path="url(#clip0_3019_53435)">
<path d="M7.33331 2.66665H4.53331C3.41321 2.66665 2.85315 2.66665 2.42533 2.88464C2.04901 3.07639 1.74305 3.38235 1.5513 3.75867C1.33331 4.1865 1.33331 4.74655 1.33331 5.86665V11.4667C1.33331 12.5867 1.33331 13.1468 1.5513 13.5747C1.74305 13.9509 2.04901 14.2569 2.42533 14.4487C2.85315 14.6667 3.41321 14.6667 4.53331 14.6667H10.1333C11.2534 14.6667 11.8134 14.6667 12.2413 14.4487C12.6176 14.2569 12.9236 13.9509 13.1153 13.5747C13.3333 13.1468 13.3333 12.5867 13.3333 11.4667V8.66667M5.33329 10.6667H6.44966C6.77578 10.6667 6.93885 10.6667 7.09231 10.6298C7.22831 10.5971 7.35838 10.5433 7.47771 10.4702C7.61225 10.3877 7.72758 10.2724 7.95818 10.0418L14.3333 3.66665C14.8856 3.11437 14.8856 2.21894 14.3333 1.66665C13.781 1.11437 12.8856 1.11437 12.3333 1.66665L5.95813 8.0418C5.72753 8.2724 5.61223 8.38773 5.52977 8.52227C5.45667 8.6416 5.4028 8.7716 5.37013 8.90767C5.33329 9.06113 5.33329 9.2242 5.33329 9.55033V10.6667Z" stroke="#475569" stroke-width="1.4" stroke-linecap="round" stroke-linejoin="round"/>
</g>
<defs>
<clipPath id="clip0_3019_53435">
<rect width="16" height="16" fill="white"/>
</clipPath>
</defs>
</svg>
