<svg width="16" height="16" viewBox="0 0 16 16" fill="none" xmlns="http://www.w3.org/2000/svg">
<g clip-path="url(#clip0_3057_77404)">
<path d="M6.66667 10L4.6165 12.0758C4.33053 12.3654 4.18754 12.5102 4.06464 12.5204C3.95801 12.5292 3.85362 12.4864 3.78398 12.4051C3.70371 12.3115 3.70371 12.108 3.70371 11.701V10.6611C3.70371 10.296 3.40472 10.0318 3.04347 9.97891C2.16916 9.85084 1.48252 9.16424 1.35446 8.28991C1.33334 8.14577 1.33334 7.97371 1.33334 7.62964V4.53337C1.33334 3.41327 1.33334 2.85321 1.55132 2.42539C1.74307 2.04907 2.04903 1.74311 2.42536 1.55136C2.85318 1.33337 3.41323 1.33337 4.53334 1.33337H9.46667C10.5868 1.33337 11.1468 1.33337 11.5747 1.55136C11.951 1.74311 12.2569 2.04907 12.4487 2.42539C12.6667 2.85321 12.6667 3.41327 12.6667 4.53337V7.33337M12.6667 14.6667L11.2157 13.658C11.0118 13.5162 10.9098 13.4452 10.7988 13.395C10.7003 13.3504 10.5967 13.3179 10.4904 13.2983C10.3705 13.2762 10.2463 13.2762 9.99794 13.2762H8.8C8.05327 13.2762 7.67987 13.2762 7.39467 13.1309C7.1438 13.0031 6.9398 12.7991 6.812 12.5482C6.66667 12.263 6.66667 11.8896 6.66667 11.1429V9.46671C6.66667 8.71997 6.66667 8.34657 6.812 8.06137C6.9398 7.81051 7.1438 7.60651 7.39467 7.47871C7.67987 7.33337 8.05327 7.33337 8.8 7.33337H12.5333C13.2801 7.33337 13.6535 7.33337 13.9387 7.47871C14.1895 7.60651 14.3935 7.81051 14.5213 8.06137C14.6667 8.34657 14.6667 8.71997 14.6667 9.46671V11.2762C14.6667 11.8975 14.6667 12.2081 14.5652 12.4532C14.4299 12.7798 14.1703 13.0394 13.8436 13.1747C13.5985 13.2762 13.2879 13.2762 12.6667 13.2762V14.6667Z" stroke="black" stroke-opacity="0.6" stroke-width="1.2" stroke-linecap="round" stroke-linejoin="round"/>
</g>
<defs>
<clipPath id="clip0_3057_77404">
<rect width="16" height="16" fill="white"/>
</clipPath>
</defs>
</svg>
