<svg width="24" height="24" viewBox="0 0 24 24" fill="none" xmlns="http://www.w3.org/2000/svg">
<rect width="24" height="24" rx="12" fill="#EBF7FF"/>
<path d="M9.08337 9.95801L10.7996 10.9727C11.8001 11.5642 12.2 11.5642 13.2005 10.9727L14.9167 9.95801" stroke="#0F172A" stroke-width="1.2" stroke-linecap="round" stroke-linejoin="round"/>
<path d="M6.17583 12.8611C6.21396 14.6494 6.23303 15.5434 6.89285 16.2058C7.55267 16.8681 8.47099 16.8912 10.3076 16.9373C11.4396 16.9658 12.5604 16.9658 13.6923 16.9373C15.529 16.8912 16.4472 16.8681 17.1071 16.2058C17.7669 15.5434 17.786 14.6494 17.8241 12.8611C17.8364 12.2861 17.8364 11.7146 17.8241 11.1396C17.786 9.35133 17.7669 8.45721 17.1071 7.79488C16.4472 7.13254 15.529 7.10947 13.6923 7.06333C12.5604 7.03488 11.4396 7.03488 10.3076 7.06332C8.47099 7.10946 7.55267 7.13253 6.89285 7.79487C6.23302 8.45721 6.21396 9.35132 6.17582 11.1396C6.16356 11.7146 6.16356 12.2861 6.17583 12.8611Z" stroke="#0F172A" stroke-width="1.2" stroke-linecap="round" stroke-linejoin="round"/>
</svg>
