<svg width="24" height="24" viewBox="0 0 24 24" fill="none" xmlns="http://www.w3.org/2000/svg">
<rect x="2" y="2" width="20" height="20" rx="10" fill="#E6E6E6"/>
<path d="M9.08337 9.95819L10.7996 10.9728C11.8001 11.5644 12.2 11.5644 13.2005 10.9728L14.9167 9.95819" stroke="#0F172A" stroke-width="1.2" stroke-linecap="round" stroke-linejoin="round"/>
<path d="M6.17583 12.8609C6.21396 14.6492 6.23303 15.5433 6.89285 16.2056C7.55267 16.8679 8.47099 16.891 10.3076 16.9371C11.4396 16.9656 12.5604 16.9656 13.6923 16.9371C15.529 16.891 16.4472 16.8679 17.1071 16.2056C17.7669 15.5433 17.786 14.6492 17.8241 12.8609C17.8364 12.2859 17.8364 11.7144 17.8241 11.1394C17.786 9.35115 17.7669 8.45703 17.1071 7.79469C16.4472 7.13236 15.529 7.10929 13.6923 7.06314C12.5604 7.0347 11.4396 7.0347 10.3076 7.06314C8.47099 7.10928 7.55267 7.13235 6.89285 7.79469C6.23302 8.45702 6.21396 9.35114 6.17582 11.1394C6.16356 11.7144 6.16356 12.2859 6.17583 12.8609Z" stroke="#0F172A" stroke-width="1.2" stroke-linecap="round" stroke-linejoin="round"/>
</svg>
