<svg width="14" height="14" viewBox="0 0 14 14" fill="none" xmlns="http://www.w3.org/2000/svg">
<path d="M4.08337 4.95825L5.79955 5.9729C6.80007 6.56446 7.20001 6.56446 8.20054 5.9729L9.91671 4.95825" stroke="#0F172A" stroke-width="1.2" stroke-linecap="round" stroke-linejoin="round"/>
<path d="M1.17583 7.86085C1.21396 9.64912 1.23303 10.5432 1.89285 11.2056C2.55267 11.8679 3.47099 11.8909 5.30761 11.9371C6.43955 11.9655 7.56037 11.9655 8.69233 11.9371C10.529 11.8909 11.4472 11.8679 12.1071 11.2056C12.7669 10.5432 12.786 9.64912 12.8241 7.86085C12.8364 7.28586 12.8364 6.71431 12.8241 6.13932C12.786 4.35108 12.7669 3.45697 12.1071 2.79463C11.4472 2.1323 10.529 2.10923 8.69233 2.06308C7.56037 2.03464 6.43955 2.03464 5.3076 2.06308C3.47099 2.10922 2.55267 2.13229 1.89285 2.79463C1.23302 3.45696 1.21396 4.35108 1.17582 6.13932C1.16356 6.71431 1.16356 7.28586 1.17583 7.86085Z" stroke="#0F172A" stroke-width="1.2" stroke-linecap="round" stroke-linejoin="round"/>
</svg>
