<svg width="24" height="24" viewBox="0 0 24 24" fill="none" xmlns="http://www.w3.org/2000/svg">
<path d="M18.3333 16L13.9047 12M10.0952 12L5.66668 16M5.33333 8.66663L10.7766 12.4769C11.2174 12.7855 11.4378 12.9398 11.6775 12.9995C11.8893 13.0523 12.1107 13.0523 12.3225 12.9995C12.5622 12.9398 12.7826 12.7855 13.2234 12.4769L18.6667 8.66663M8.53333 17.3333H15.4667C16.5868 17.3333 17.1468 17.3333 17.5747 17.1153C17.951 16.9236 18.2569 16.6176 18.4487 16.2413C18.6667 15.8134 18.6667 15.2534 18.6667 14.1333V9.86663C18.6667 8.74652 18.6667 8.18647 18.4487 7.75865C18.2569 7.38232 17.951 7.07636 17.5747 6.88461C17.1468 6.66663 16.5868 6.66663 15.4667 6.66663H8.53333C7.41322 6.66663 6.85317 6.66663 6.42535 6.88461C6.04902 7.07636 5.74306 7.38232 5.55131 7.75865C5.33333 8.18647 5.33333 8.74652 5.33333 9.86663V14.1333C5.33333 15.2534 5.33333 15.8134 5.55131 16.2413C5.74306 16.6176 6.04902 16.9236 6.42535 17.1153C6.85317 17.3333 7.41322 17.3333 8.53333 17.3333Z" stroke="#64758B" stroke-width="1.3" stroke-linecap="round" stroke-linejoin="round"/>
</svg>
