<svg width="16" height="16" viewBox="0 0 16 16" fill="none" xmlns="http://www.w3.org/2000/svg">
<path d="M8.66537 7.99967C8.66537 8.36787 8.3669 8.66634 7.9987 8.66634C7.6305 8.66634 7.33203 8.36787 7.33203 7.99967C7.33203 7.63147 7.6305 7.33301 7.9987 7.33301C8.3669 7.33301 8.66537 7.63147 8.66537 7.99967Z" stroke="#64758B" stroke-width="1.3" stroke-linecap="round" stroke-linejoin="round"/>
<path d="M4.0013 7.99967C4.0013 8.36787 3.70282 8.66634 3.33464 8.66634C2.96645 8.66634 2.66797 8.36787 2.66797 7.99967C2.66797 7.63147 2.96645 7.33301 3.33464 7.33301C3.70282 7.33301 4.0013 7.63147 4.0013 7.99967Z" stroke="#64758B" stroke-width="1.3" stroke-linecap="round" stroke-linejoin="round"/>
<path d="M13.3333 7.99967C13.3333 8.36787 13.0349 8.66634 12.6667 8.66634C12.2985 8.66634 12 8.36787 12 7.99967C12 7.63147 12.2985 7.33301 12.6667 7.33301C13.0349 7.33301 13.3333 7.63147 13.3333 7.99967Z" stroke="#64758B" stroke-width="1.3" stroke-linecap="round" stroke-linejoin="round"/>
</svg>
