<svg width="16" height="16" viewBox="0 0 16 16" fill="none" xmlns="http://www.w3.org/2000/svg">
<g clip-path="url(#clip0_3019_53371)">
<path d="M1.66671 8H3.92135C4.37815 8 4.79575 8.25806 5.00004 8.66666C5.20433 9.07526 5.62193 9.33333 6.07873 9.33333H9.92137C10.3782 9.33333 10.7958 9.07526 11 8.66666C11.2043 8.25806 11.6219 8 12.0787 8H14.3334M5.97775 2.66666H10.0223C10.7402 2.66666 11.0992 2.66666 11.4161 2.77597C11.6964 2.87264 11.9516 3.0304 12.1634 3.23783C12.4029 3.4724 12.5634 3.79346 12.8845 4.43558L14.3288 7.32433C14.4548 7.57633 14.5178 7.70233 14.5623 7.83433C14.6018 7.95166 14.6302 8.07233 14.6474 8.19486C14.6667 8.3328 14.6667 8.47366 14.6667 8.7554V10.1333C14.6667 11.2535 14.6667 11.8135 14.4487 12.2413C14.257 12.6177 13.951 12.9236 13.5747 13.1153C13.1468 13.3333 12.5868 13.3333 11.4667 13.3333H4.53337C3.41327 13.3333 2.85321 13.3333 2.42539 13.1153C2.04907 12.9236 1.74311 12.6177 1.55136 12.2413C1.33337 11.8135 1.33337 11.2535 1.33337 10.1333V8.7554C1.33337 8.47366 1.33337 8.3328 1.35269 8.19486C1.36985 8.07233 1.39833 7.95166 1.43779 7.83433C1.48221 7.70233 1.54521 7.57633 1.67121 7.32433L3.11558 4.43558C3.43664 3.79346 3.59717 3.4724 3.83667 3.23783C4.04846 3.0304 4.30371 2.87264 4.58397 2.77597C4.90087 2.66666 5.25983 2.66666 5.97775 2.66666Z" stroke="#0F172A" stroke-width="1.48571" stroke-linecap="round" stroke-linejoin="round"/>
</g>
<defs>
<clipPath id="clip0_3019_53371">
<rect width="16" height="16" fill="white"/>
</clipPath>
</defs>
</svg>
