<svg width="16" height="16" viewBox="0 0 16 16" fill="none" xmlns="http://www.w3.org/2000/svg">
<g clip-path="url(#clip0_3019_53383)">
<path d="M6.23609 14C6.70616 14.4149 7.32369 14.6667 7.99996 14.6667C8.67629 14.6667 9.29376 14.4149 9.76383 14M12 5.33333C12 4.27246 11.5786 3.25505 10.8284 2.5049C10.0782 1.75475 9.06083 1.33333 7.99996 1.33333C6.93909 1.33333 5.92169 1.75475 5.17155 2.5049C4.4214 3.25505 3.99997 4.27246 3.99997 5.33333C3.99997 7.39346 3.48029 8.80399 2.89975 9.73693C2.41006 10.5239 2.16521 10.9174 2.17419 11.0272C2.18413 11.1487 2.20988 11.1951 2.30782 11.2677C2.39628 11.3333 2.79503 11.3333 3.59254 11.3333H12.4074C13.2049 11.3333 13.6037 11.3333 13.6921 11.2677C13.7901 11.1951 13.8158 11.1487 13.8258 11.0272C13.8348 10.9174 13.5899 10.5239 13.1002 9.73693C12.5196 8.80399 12 7.39346 12 5.33333Z" stroke="#0F172A" stroke-width="1.48571" stroke-linecap="round" stroke-linejoin="round"/>
</g>
<defs>
<clipPath id="clip0_3019_53383">
<rect width="16" height="16" fill="white"/>
</clipPath>
</defs>
</svg>
