<svg width="20" height="20" viewBox="0 0 20 20" fill="none" xmlns="http://www.w3.org/2000/svg">
<circle cx="10" cy="10" r="8.24169" fill="#F2FDF6" stroke="#099552" stroke-width="1.01661"/>
<path d="M5.19373 10.7837C5.41967 10.5868 5.63688 10.6178 6.84119 10.7896C7.74733 10.9188 8.98872 11.0942 9.97888 11.0942C10.9881 11.0942 12.2754 10.9184 13.2152 10.7905C14.4765 10.6199 14.7055 10.5891 14.931 10.7847C15.0336 10.8747 15.0989 11.0178 15.099 11.1538C15.0989 13.921 12.8392 16.1731 10.0619 16.1733C7.28451 16.1732 5.02389 13.9211 5.0238 11.1538C5.02385 11.0167 5.09031 10.8736 5.19373 10.7837ZM10.2592 14.4546C9.7573 14.424 9.24072 14.6381 8.8363 15.0376C9.22344 15.1588 9.6348 15.2278 10.0619 15.228C10.6333 15.228 11.1765 15.1065 11.6713 14.895C11.4352 14.7097 11.0104 14.5043 10.2592 14.4546ZM13.3431 11.7271C12.3762 11.8584 11.0513 12.0396 9.97791 12.0396C8.92148 12.0395 7.64229 11.8568 6.70837 11.7241C6.46558 11.6896 6.20456 11.6527 5.99548 11.6274C6.14412 12.8987 6.8844 13.9932 7.93298 14.6313C8.54876 13.873 9.43689 13.4579 10.3217 13.5122C11.5543 13.5947 12.1966 14.0342 12.5248 14.4038C13.3949 13.7489 13.9961 12.7572 14.1273 11.6245C13.9007 11.6511 13.612 11.6901 13.3431 11.7271ZM6.97595 6.88916C7.40747 6.8892 7.82234 7.05854 8.13123 7.35986C8.43989 7.66118 8.61857 8.0712 8.62927 8.50244C8.62927 8.67096 8.56191 8.8325 8.44275 8.95166C8.32361 9.07071 8.16196 9.13818 7.99353 9.13818C7.82516 9.13808 7.66338 9.07072 7.54431 8.95166C7.42529 8.83252 7.35876 8.67085 7.35876 8.50244C7.3537 8.4044 7.31078 8.31226 7.23962 8.24463C7.16844 8.17702 7.07412 8.1392 6.97595 8.13916C6.87775 8.13916 6.7835 8.17702 6.71228 8.24463C6.64107 8.31227 6.59821 8.40436 6.59314 8.50244C6.59314 8.67096 6.52577 8.8325 6.40662 8.95166C6.28747 9.07075 6.12586 9.13818 5.9574 9.13818C5.78897 9.13812 5.62728 9.07076 5.50818 8.95166C5.38911 8.83252 5.32263 8.67089 5.32263 8.50244C5.33334 8.07113 5.51191 7.66119 5.82068 7.35986C6.12961 7.0585 6.54438 6.88916 6.97595 6.88916ZM13.0873 6.84814C13.5259 6.84818 13.947 7.02236 14.2572 7.33252C14.5674 7.6427 14.7416 8.0638 14.7416 8.50244C14.7416 8.67094 14.6742 8.83251 14.5551 8.95166C14.4359 9.07081 14.2743 9.13818 14.1058 9.13818C13.9373 9.13818 13.7758 9.07082 13.6566 8.95166C13.5375 8.8325 13.4701 8.67095 13.4701 8.50244C13.4701 8.40083 13.4296 8.3038 13.3578 8.23193C13.2859 8.16009 13.1889 8.11966 13.0873 8.11963C12.9856 8.11963 12.8877 8.16006 12.8158 8.23193C12.7442 8.30376 12.7035 8.401 12.7035 8.50244C12.7035 8.6709 12.637 8.83251 12.5179 8.95166C12.3988 9.07077 12.2372 9.13813 12.0687 9.13818C11.9003 9.13818 11.7387 9.07076 11.6195 8.95166C11.5003 8.8325 11.433 8.67096 11.433 8.50244C11.433 8.06378 11.6072 7.6427 11.9174 7.33252C12.2275 7.02238 12.6486 6.84814 13.0873 6.84814Z" fill="#099552"/>
</svg>
