<svg width="16" height="16" viewBox="0 0 16 16" fill="none" xmlns="http://www.w3.org/2000/svg">
<g clip-path="url(#clip0_3057_77365)">
<path d="M12 4.66671V3.46671C12 2.71997 12 2.3466 11.8547 2.06139C11.7269 1.8105 11.5229 1.60653 11.272 1.4787C10.9868 1.33337 10.6134 1.33337 9.86666 1.33337H6.13333C5.38659 1.33337 5.01322 1.33337 4.72801 1.4787C4.47712 1.60653 4.27315 1.8105 4.14532 2.06139C3.99999 2.3466 3.99999 2.71997 3.99999 3.46671V4.66671M3.99999 12C3.38001 12 3.07002 12 2.81569 11.9319C2.12551 11.747 1.58641 11.2078 1.40147 10.5177C1.33333 10.2634 1.33333 9.95337 1.33333 9.33337V7.86671C1.33333 6.74657 1.33333 6.18655 1.55131 5.75873C1.74306 5.3824 2.04902 5.07644 2.42535 4.88469C2.85317 4.66671 3.41322 4.66671 4.53333 4.66671H11.4667C12.5868 4.66671 13.1468 4.66671 13.5747 4.88469C13.951 5.07644 14.2569 5.3824 14.4487 5.75873C14.6667 6.18655 14.6667 6.74657 14.6667 7.86671V9.33337C14.6667 9.95337 14.6667 10.2634 14.5985 10.5177C14.4136 11.2078 13.8745 11.747 13.1843 11.9319C12.93 12 12.62 12 12 12M9.99999 7.00004H12M6.13333 14.6667H9.86666C10.6134 14.6667 10.9868 14.6667 11.272 14.5214C11.5229 14.3936 11.7269 14.1896 11.8547 13.9387C12 13.6535 12 13.2801 12 12.5334V11.4667C12 10.72 12 10.3466 11.8547 10.0614C11.7269 9.81051 11.5229 9.60651 11.272 9.47871C10.9868 9.33337 10.6134 9.33337 9.86666 9.33337H6.13333C5.38659 9.33337 5.01322 9.33337 4.72801 9.47871C4.47712 9.60651 4.27315 9.81051 4.14532 10.0614C3.99999 10.3466 3.99999 10.72 3.99999 11.4667V12.5334C3.99999 13.2801 3.99999 13.6535 4.14532 13.9387C4.27315 14.1896 4.47712 14.3936 4.72801 14.5214C5.01322 14.6667 5.38659 14.6667 6.13333 14.6667Z" stroke="#64758B" stroke-width="1.3" stroke-linecap="round" stroke-linejoin="round"/>
</g>
<defs>
<clipPath id="clip0_3057_77365">
<rect width="16" height="16" fill="white"/>
</clipPath>
</defs>
</svg>
