<svg width="24" height="24" viewBox="0 0 24 24" fill="none" xmlns="http://www.w3.org/2000/svg">
<g clip-path="url(#clip0_3057_77363)">
<path d="M16 8.66671V7.46671C16 6.71997 16 6.3466 15.8547 6.06139C15.7269 5.8105 15.5229 5.60653 15.272 5.4787C14.9868 5.33337 14.6134 5.33337 13.8667 5.33337H10.1333C9.38659 5.33337 9.01322 5.33337 8.72801 5.4787C8.47712 5.60653 8.27315 5.8105 8.14532 6.06139C7.99999 6.3466 7.99999 6.71997 7.99999 7.46671V8.66671M7.99999 16C7.38001 16 7.07002 16 6.81569 15.9319C6.12551 15.747 5.58641 15.2078 5.40147 14.5177C5.33333 14.2634 5.33333 13.9534 5.33333 13.3334V11.8667C5.33333 10.7466 5.33333 10.1865 5.55131 9.75873C5.74306 9.3824 6.04902 9.07644 6.42535 8.88469C6.85317 8.66671 7.41322 8.66671 8.53333 8.66671H15.4667C16.5868 8.66671 17.1468 8.66671 17.5747 8.88469C17.951 9.07644 18.2569 9.3824 18.4487 9.75873C18.6667 10.1865 18.6667 10.7466 18.6667 11.8667V13.3334C18.6667 13.9534 18.6667 14.2634 18.5985 14.5177C18.4136 15.2078 17.8745 15.747 17.1843 15.9319C16.93 16 16.62 16 16 16M14 11H16M10.1333 18.6667H13.8667C14.6134 18.6667 14.9868 18.6667 15.272 18.5214C15.5229 18.3936 15.7269 18.1896 15.8547 17.9387C16 17.6535 16 17.2801 16 16.5334V15.4667C16 14.72 16 14.3466 15.8547 14.0614C15.7269 13.8105 15.5229 13.6065 15.272 13.4787C14.9868 13.3334 14.6134 13.3334 13.8667 13.3334H10.1333C9.38659 13.3334 9.01322 13.3334 8.72801 13.4787C8.47712 13.6065 8.27315 13.8105 8.14532 14.0614C7.99999 14.3466 7.99999 14.72 7.99999 15.4667V16.5334C7.99999 17.2801 7.99999 17.6535 8.14532 17.9387C8.27315 18.1896 8.47712 18.3936 8.72801 18.5214C9.01322 18.6667 9.38659 18.6667 10.1333 18.6667Z" stroke="#64758B" stroke-width="1.3" stroke-linecap="round" stroke-linejoin="round"/>
</g>
<defs>
<clipPath id="clip0_3057_77363">
<rect width="16" height="16" fill="white" transform="translate(4 4)"/>
</clipPath>
</defs>
</svg>
