<svg width="16" height="16" viewBox="0 0 16 16" fill="none" xmlns="http://www.w3.org/2000/svg">
<g clip-path="url(#clip0_3173_1837)">
<path d="M12 4.66683V3.46683C12 2.7201 12 2.34672 11.8546 2.06151C11.7268 1.81062 11.5228 1.60665 11.272 1.47882C10.9868 1.3335 10.6134 1.3335 9.86665 1.3335H6.13331C5.38658 1.3335 5.01321 1.3335 4.72799 1.47882C4.47711 1.60665 4.27313 1.81062 4.14531 2.06151C3.99998 2.34672 3.99998 2.7201 3.99998 3.46683V4.66683M3.99998 12.0002C3.38 12.0002 3.07001 12.0002 2.81567 11.932C2.12549 11.7471 1.58639 11.208 1.40146 10.5178C1.33331 10.2635 1.33331 9.9535 1.33331 9.3335V7.86683C1.33331 6.7467 1.33331 6.18667 1.5513 5.75885C1.74305 5.38252 2.04901 5.07656 2.42533 4.88482C2.85315 4.66683 3.41321 4.66683 4.53331 4.66683H11.4666C12.5868 4.66683 13.1468 4.66683 13.5746 4.88482C13.951 5.07656 14.2569 5.38252 14.4486 5.75885C14.6666 6.18667 14.6666 6.7467 14.6666 7.86683V9.3335C14.6666 9.9535 14.6666 10.2635 14.5985 10.5178C14.4136 11.208 13.8744 11.7471 13.1843 11.932C12.93 12.0002 12.62 12.0002 12 12.0002M9.99998 7.00016H12M6.13331 14.6668H9.86665C10.6134 14.6668 10.9868 14.6668 11.272 14.5215C11.5228 14.3937 11.7268 14.1897 11.8546 13.9388C12 13.6536 12 13.2802 12 12.5335V11.4668C12 10.7201 12 10.3467 11.8546 10.0615C11.7268 9.81063 11.5228 9.60663 11.272 9.47883C10.9868 9.3335 10.6134 9.3335 9.86665 9.3335H6.13331C5.38658 9.3335 5.01321 9.3335 4.72799 9.47883C4.47711 9.60663 4.27313 9.81063 4.14531 10.0615C3.99998 10.3467 3.99998 10.7201 3.99998 11.4668V12.5335C3.99998 13.2802 3.99998 13.6536 4.14531 13.9388C4.27313 14.1897 4.47711 14.3937 4.72799 14.5215C5.01321 14.6668 5.38657 14.6668 6.13331 14.6668Z" stroke="#64758B" stroke-width="1.4" stroke-linecap="round" stroke-linejoin="round"/>
</g>
<defs>
<clipPath id="clip0_3173_1837">
<rect width="16" height="16" fill="white"/>
</clipPath>
</defs>
</svg>
