<svg width="24" height="24" viewBox="0 0 24 24" fill="none" xmlns="http://www.w3.org/2000/svg">
<rect width="24" height="24" rx="12" fill="#F5F5FF"/>
<path d="M8.47992 13.6022C8.47992 14.3042 7.90642 14.8777 7.20438 14.8777C6.50233 14.8777 5.92883 14.3042 5.92883 13.6022C5.92883 12.9002 6.50233 12.3267 7.20438 12.3267H8.47992V13.6022Z" fill="#E01E5A"/>
<path d="M9.12292 13.6022C9.12292 12.9002 9.69643 12.3267 10.3985 12.3267C11.1005 12.3267 11.674 12.9002 11.674 13.6022V16.796C11.674 17.4981 11.1005 18.0716 10.3985 18.0716C9.69643 18.0716 9.12292 17.4981 9.12292 16.796V13.6022Z" fill="#E01E5A"/>
<path d="M10.3982 8.4798C9.69618 8.4798 9.12268 7.9063 9.12268 7.20426C9.12268 6.50221 9.69618 5.92871 10.3982 5.92871C11.1003 5.92871 11.6738 6.50221 11.6738 7.20426V8.4798H10.3982Z" fill="#36C5F0"/>
<path d="M10.3982 9.12256C11.1002 9.12256 11.6737 9.69606 11.6737 10.3981C11.6737 11.1001 11.1002 11.6736 10.3982 11.6736H7.20438C6.50233 11.6736 5.92883 11.1001 5.92883 10.3981C5.92883 9.69606 6.50233 9.12256 7.20438 9.12256H10.3982Z" fill="#36C5F0"/>
<path d="M15.5211 10.3986C15.5211 9.69655 16.0946 9.12305 16.7967 9.12305C17.4987 9.12305 18.0722 9.69655 18.0722 10.3986C18.0722 11.1006 17.4987 11.6741 16.7967 11.6741H15.5211V10.3986Z" fill="#2EB67D"/>
<path d="M14.8784 10.3985C14.8784 11.1006 14.3049 11.6741 13.6028 11.6741C12.9008 11.6741 12.3273 11.1006 12.3273 10.3985V7.20474C12.3273 6.5027 12.9008 5.9292 13.6028 5.9292C14.3049 5.9292 14.8784 6.5027 14.8784 7.20474V10.3985Z" fill="#2EB67D"/>
<path d="M13.6028 15.52C14.3049 15.52 14.8784 16.0935 14.8784 16.7956C14.8784 17.4976 14.3049 18.0711 13.6028 18.0711C12.9008 18.0711 12.3273 17.4976 12.3273 16.7956V15.52H13.6028Z" fill="#ECB22E"/>
<path d="M13.6028 14.8777C12.9008 14.8777 12.3273 14.3042 12.3273 13.6022C12.3273 12.9002 12.9008 12.3267 13.6028 12.3267H16.7966C17.4987 12.3267 18.0722 12.9002 18.0722 13.6022C18.0722 14.3042 17.4987 14.8777 16.7966 14.8777H13.6028Z" fill="#ECB22E"/>
</svg>
