<svg width="14" height="14" viewBox="0 0 14 14" fill="none" xmlns="http://www.w3.org/2000/svg">
<path d="M4.10114 8.31952C4.10114 8.89767 3.62885 9.36997 3.05069 9.36997C2.47254 9.36997 2.00024 8.89767 2.00024 8.31952C2.00024 7.74137 2.47254 7.26907 3.05069 7.26907H4.10114V8.31952Z" fill="#E01E5A"/>
<path d="M4.63058 8.31946C4.63058 7.74131 5.10288 7.26901 5.68103 7.26901C6.25919 7.26901 6.73148 7.74131 6.73148 8.31946V10.9497C6.73148 11.5278 6.25919 12.0001 5.68103 12.0001C5.10288 12.0001 4.63058 11.5278 4.63058 10.9497V8.31946Z" fill="#E01E5A"/>
<path d="M5.68094 4.10111C5.10279 4.10111 4.63049 3.62882 4.63049 3.05066C4.63049 2.47251 5.10279 2.00021 5.68094 2.00021C6.25909 2.00021 6.73139 2.47251 6.73139 3.05066V4.10111H5.68094Z" fill="#36C5F0"/>
<path d="M5.68088 4.63049C6.25904 4.63049 6.73133 5.10279 6.73133 5.68094C6.73133 6.25909 6.25904 6.73139 5.68088 6.73139H3.05069C2.47254 6.73139 2.00024 6.25909 2.00024 5.68094C2.00024 5.10279 2.47254 4.63049 3.05069 4.63049H5.68088Z" fill="#36C5F0"/>
<path d="M9.89975 5.68103C9.89975 5.10288 10.372 4.63058 10.9502 4.63058C11.5284 4.63058 12.0006 5.10288 12.0006 5.68103C12.0006 6.25919 11.5284 6.73148 10.9502 6.73148H9.89975V5.68103Z" fill="#2EB67D"/>
<path d="M9.3704 5.68098C9.3704 6.25913 8.8981 6.73142 8.31995 6.73142C7.74179 6.73142 7.2695 6.25913 7.2695 5.68098V3.05078C7.2695 2.47263 7.74179 2.00034 8.31995 2.00034C8.8981 2.00034 9.3704 2.47263 9.3704 3.05078V5.68098Z" fill="#2EB67D"/>
<path d="M8.31995 9.8988C8.8981 9.8988 9.3704 10.3711 9.3704 10.9493C9.3704 11.5274 8.8981 11.9997 8.31995 11.9997C7.74179 11.9997 7.2695 11.5274 7.2695 10.9493V9.8988H8.31995Z" fill="#ECB22E"/>
<path d="M8.31995 9.36991C7.74179 9.36991 7.2695 8.89761 7.2695 8.31946C7.2695 7.74131 7.74179 7.26901 8.31995 7.26901H10.9501C11.5283 7.26901 12.0006 7.74131 12.0006 8.31946C12.0006 8.89761 11.5283 9.36991 10.9501 9.36991H8.31995Z" fill="#ECB22E"/>
</svg>
