<svg width="16" height="16" viewBox="0 0 16 16" fill="none" xmlns="http://www.w3.org/2000/svg">
<g clip-path="url(#clip0_3002_11085)">
<path d="M10.6666 5.33334H10.66M14.6666 3.46668V6.44968C14.6666 6.77581 14.6666 6.93888 14.6298 7.09234C14.5971 7.22834 14.5433 7.35841 14.4701 7.47774C14.3877 7.61228 14.2724 7.72761 14.0418 7.95821L8.92936 13.0706C8.13736 13.8626 7.74129 14.2587 7.28469 14.407C6.88296 14.5375 6.45029 14.5375 6.04863 14.407C5.59196 14.2587 5.19589 13.8626 4.40389 13.0706L2.92936 11.5961C2.13736 10.8041 1.74129 10.408 1.59296 9.95134C1.46243 9.54968 1.46243 9.11701 1.59296 8.71528C1.74129 8.25868 2.13736 7.86261 2.92936 7.07061L8.04176 1.95818C8.27236 1.72758 8.38769 1.61228 8.52223 1.52982C8.64156 1.45672 8.77163 1.40284 8.90763 1.37018C9.06109 1.33334 9.22416 1.33334 9.55028 1.33334H12.5333C13.28 1.33334 13.6534 1.33334 13.9386 1.47867C14.1895 1.6065 14.3935 1.81047 14.5213 2.06136C14.6666 2.34657 14.6666 2.71994 14.6666 3.46668ZM10.3333 5.33334C10.3333 5.51744 10.4825 5.66668 10.6666 5.66668C10.8507 5.66668 11 5.51744 11 5.33334C11 5.14925 10.8507 5.00001 10.6666 5.00001C10.4825 5.00001 10.3333 5.14925 10.3333 5.33334Z" stroke="#0F172A" stroke-width="1.3" stroke-linecap="round" stroke-linejoin="round"/>
</g>
<defs>
<clipPath id="clip0_3002_11085">
<rect width="16" height="16" fill="white" transform="matrix(-1 0 0 1 16 0)"/>
</clipPath>
</defs>
</svg>
