<svg width="14" height="14" viewBox="0 0 14 14" fill="none" xmlns="http://www.w3.org/2000/svg">
<g clip-path="url(#clip0_3019_53411)">
<path d="M9.08867 4.76979H9.0831M12.4292 3.21088V5.70208C12.4292 5.97444 12.4292 6.11062 12.3984 6.23879C12.3712 6.35236 12.3262 6.46099 12.2651 6.56065C12.1963 6.673 12.1 6.76932 11.9074 6.9619L7.63782 11.2314C6.9764 11.8929 6.64563 12.2236 6.26431 12.3475C5.92881 12.4565 5.56747 12.4565 5.23203 12.3475C4.85065 12.2236 4.51988 11.8929 3.85846 11.2314L2.62703 10C1.9656 9.33858 1.63484 9.00781 1.51096 8.62643C1.40195 8.29099 1.40195 7.92965 1.51096 7.59415C1.63484 7.21283 1.9656 6.88206 2.62703 6.22064L6.89656 1.95108C7.08914 1.7585 7.18546 1.66221 7.29781 1.59335C7.39747 1.53229 7.50609 1.4873 7.61967 1.46003C7.74784 1.42926 7.88402 1.42926 8.15637 1.42926H10.6476C11.2712 1.42926 11.583 1.42926 11.8212 1.55063C12.0307 1.65738 12.2011 1.82772 12.3078 2.03725C12.4292 2.27544 12.4292 2.58725 12.4292 3.21088ZM8.81029 4.76979C8.81029 4.92353 8.93493 5.04817 9.08867 5.04817C9.24241 5.04817 9.36705 4.92353 9.36705 4.76979C9.36705 4.61605 9.24241 4.49141 9.08867 4.49141C8.93493 4.49141 8.81029 4.61605 8.81029 4.76979Z" stroke="#475569" stroke-width="1.3" stroke-linecap="round" stroke-linejoin="round"/>
</g>
<defs>
<clipPath id="clip0_3019_53411">
<rect width="14" height="14" fill="white"/>
</clipPath>
</defs>
</svg>
