<svg width="14" height="14" viewBox="0 0 14 14" fill="none" xmlns="http://www.w3.org/2000/svg">
<path d="M12.8333 12.25V11.0833C12.8333 9.99612 12.0897 9.08256 11.0833 8.8235M9.04163 1.91961C9.89673 2.26575 10.5 3.1041 10.5 4.08333C10.5 5.06257 9.89673 5.90094 9.04163 6.24703M9.91663 12.25C9.91663 11.1628 9.91663 10.6192 9.739 10.1904C9.50217 9.6187 9.04793 9.16446 8.4762 8.92762C8.04739 8.75 7.50384 8.75 6.41663 8.75H4.66663C3.57943 8.75 3.03583 8.75 2.60703 8.92762C2.0353 9.16446 1.58106 9.6187 1.34424 10.1904C1.16663 10.6192 1.16663 11.1628 1.16663 12.25M7.87496 4.08333C7.87496 5.372 6.83027 6.41667 5.54163 6.41667C4.25296 6.41667 3.20829 5.372 3.20829 4.08333C3.20829 2.79467 4.25296 1.75 5.54163 1.75C6.83027 1.75 7.87496 2.79467 7.87496 4.08333Z" stroke="#475569" stroke-width="1.3" stroke-linecap="round" stroke-linejoin="round"/>
</svg>
