<svg width="16" height="16" viewBox="0 0 16 16" fill="none" xmlns="http://www.w3.org/2000/svg">
<path d="M1.16663 8.71562L6.79124 11.5279C6.86778 11.5662 6.90604 11.5853 6.94618 11.5928C6.9817 11.5995 7.01822 11.5995 7.05374 11.5928C7.09388 11.5853 7.13214 11.5662 7.20868 11.5279L12.8333 8.71562M1.16663 5.79893L6.79124 2.98661C6.86778 2.94835 6.90604 2.92922 6.94618 2.92169C6.9817 2.91502 7.01822 2.91502 7.05374 2.92169C7.09388 2.92922 7.13214 2.94835 7.20868 2.98661L12.8333 5.79893L7.20868 8.61126C7.13214 8.64952 7.09388 8.66866 7.05374 8.67618C7.01822 8.68283 6.9817 8.68283 6.94618 8.67618C6.90604 8.66866 6.86778 8.64952 6.79124 8.61126L1.16663 5.79893Z" stroke="#0F172A" stroke-width="1.3" stroke-linecap="round" stroke-linejoin="round"/>
</svg>
