<svg width="16" height="16" viewBox="0 0 16 16" fill="none" xmlns="http://www.w3.org/2000/svg">
<path d="M8.25 3V13.5M5.8 3H10.7C11.6801 3 12.1701 3 12.5445 3.19074C12.8738 3.35852 13.1415 3.62623 13.3092 3.95552C13.5 4.32986 13.5 4.81991 13.5 5.8V10.7C13.5 11.6801 13.5 12.1701 13.3092 12.5445C13.1415 12.8738 12.8738 13.1415 12.5445 13.3092C12.1701 13.5 11.6801 13.5 10.7 13.5H5.8C4.81991 13.5 4.32986 13.5 3.95552 13.3092C3.62623 13.1415 3.35852 12.8738 3.19074 12.5445C3 12.1701 3 11.6801 3 10.7V5.8C3 4.81991 3 4.32986 3.19074 3.95552C3.35852 3.62623 3.62623 3.35852 3.95552 3.19074C4.32986 3 4.81991 3 5.8 3Z" stroke="#475569" stroke-width="1.2" stroke-linecap="round" stroke-linejoin="round"/>
</svg>
